<svg fill="none" height="30" viewBox="0 0 30 30" width="30" xmlns="http://www.w3.org/2000/svg"><path d="m1 14.9188c0-5.5387.93627-8.91329 2.97089-10.94791s5.4092-2.97089 10.94791-2.97089c5.5386 0 8.9132.93627 10.9478 2.97089 2.0347 2.03462 2.9709 5.40921 2.9709 10.94791 0 5.5386-.9362 8.9132-2.9709 10.9478-2.0346 2.0347-5.4092 2.9709-10.9478 2.9709-5.53871 0-8.91329-.9362-10.94791-2.9709-2.03462-2.0346-2.97089-5.4092-2.97089-10.9478z" stroke="#131330" stroke-linecap="round" stroke-linejoin="round" stroke-width="2"/><path d="m21.4465 13.9579c0-2.0412-1.6094-3.7045-3.5939-3.7045-1.1892 0-2.2492.5973-2.9033 1.5196v.0053l-.027.0378c0-.0075-.0079-.0128-.0127-.0189-.6556-.9336-1.7212-1.5422-2.9231-1.5422-1.9821 0-3.59469 1.6579-3.59469 3.7045.00031.6102.1496 1.212.43605 1.7577.06343.1852.74209 1.9883 5.07414 5.088l.6453.4959c.115.0882.2573.1377.4048.1409.1476.0031.292-.0403.411-.1235l.6343-.4437c4.3328-3.0997 5.0123-4.9716 5.0741-5.1561.0021-.0054.0036-.011.0048-.0166.2592-.5126.3702-1.122.3702-1.7426z" fill="#fa3b45"/></svg>