<svg width="30" height="30" viewBox="0 0 30 30" fill="none" xmlns="http://www.w3.org/2000/svg">
<path d="M1.16211 14.9188C1.16211 9.3801 2.09838 6.00551 4.133 3.97089C6.16762 1.93627 9.5422 1 15.0809 1C20.6195 1 23.9941 1.93627 26.0287 3.97089C28.0634 6.00551 28.9996 9.3801 28.9996 14.9188C28.9996 20.4574 28.0634 23.832 26.0287 25.8666C23.9941 27.9013 20.6195 28.8375 15.0809 28.8375C9.5422 28.8375 6.16762 27.9013 4.133 25.8666C2.09838 23.832 1.16211 20.4574 1.16211 14.9188Z" stroke="#131330" stroke-width="2" stroke-linecap="round" stroke-linejoin="round"/>
<path d="M13.0232 21.3259L14.0506 15.6097C14.0612 15.561 14.0606 15.5105 14.049 15.462C14.0375 15.4135 14.0151 15.3683 13.9837 15.3298C13.9523 15.2913 13.9126 15.2604 13.8677 15.2395C13.8227 15.2186 13.7737 15.2083 13.7242 15.2092H10.5178C10.4239 15.2092 10.3854 15.1 10.4528 15.0199L16.9389 7.51121C17.0196 7.41412 17.1582 7.46267 17.1401 7.58039L16.1127 13.2917C16.1021 13.3404 16.1026 13.3909 16.1142 13.4394C16.1258 13.4879 16.1481 13.5331 16.1795 13.5717C16.211 13.6102 16.2506 13.6411 16.2956 13.662C16.3405 13.6828 16.3896 13.6932 16.4391 13.6922H19.643C19.7394 13.6922 19.7755 13.8014 19.7092 13.8815L13.2231 21.3939C13.1424 21.491 13.0027 21.4424 13.022 21.3247L13.0232 21.3259Z" fill="#131330" stroke="#131330" stroke-linejoin="round"/>
</svg>
