<svg width="28" height="28" viewBox="0 0 28 28" fill="none" xmlns="http://www.w3.org/2000/svg">
<path d="M13.9609 20.1961C13.4118 20.1961 12.9805 19.7647 12.9805 19.2157V8.66667C12.9805 8.11765 13.4118 7.68628 13.9609 7.68628C14.5099 7.68628 14.9413 8.11765 14.9413 8.66667V19.2157C14.9413 19.7255 14.4707 20.1961 13.9609 20.1961Z" fill="#C1C1C1"/>
<path d="M19.2939 14.9019H8.66643C8.11741 14.9019 7.68604 14.4706 7.68604 13.9216C7.68604 13.3725 8.11741 12.9412 8.66643 12.9412H19.2939C19.8429 12.9412 20.2743 13.3725 20.2743 13.9216C20.2743 14.4706 19.8429 14.9019 19.2939 14.9019Z" fill="#C1C1C1"/>
<path d="M14.0392 1.96078C18.9412 1.96078 21.8823 2.7451 23.5686 4.43137C25.2549 6.15686 26.0392 9.05882 26.0392 13.9216C26.0392 18.7059 25.2549 21.7255 23.5686 23.4118C21.8823 25.098 18.8627 25.8823 14.0784 25.8823C9.17648 25.8823 6.23529 25.1372 4.5098 23.4118C2.78431 21.7255 2 18.7059 2 13.8823C2 9.0196 2.78431 6.11764 4.5098 4.39216C6.15686 2.7451 9.21569 1.96078 14.0392 1.96078ZM14.0392 0C3.4902 0 0 3.52941 0 13.9608C0 24.5098 3.60785 27.9216 14.0392 27.9216C24.4706 27.9216 28 24.3921 28 13.9608C28 3.49019 24.5882 0 14.0392 0Z" fill="#C1C1C1"/>
</svg>
