<svg width="24" height="29" viewBox="0 0 24 29" fill="none" xmlns="http://www.w3.org/2000/svg">
<path d="M16.6153 20.8986H6.4614C5.92294 20.8986 5.49986 20.4641 5.49986 19.911C5.49986 19.3579 5.92294 18.9233 6.4614 18.9233H16.6153C17.1537 18.9233 17.5768 19.3579 17.5768 19.911C17.5768 20.4641 17.1537 20.8986 16.6153 20.8986Z" fill="#C1C1C1"/>
<path d="M16.6153 15.2098H6.4614C5.92294 15.2098 5.49986 14.7752 5.49986 14.2222C5.49986 13.6691 5.92294 13.2345 6.4614 13.2345H16.6153C17.1537 13.2345 17.5768 13.6691 17.5768 14.2222C17.5768 14.7752 17.1537 15.2098 16.6153 15.2098Z" fill="#C1C1C1"/>
<path d="M11.0768 10.4691H6.4614C5.92294 10.4691 5.49986 10.0345 5.49986 9.48143C5.49986 8.92834 5.92294 8.49377 6.4614 8.49377H11.0768C11.6153 8.49377 12.0383 8.92834 12.0383 9.48143C12.0383 10.0345 11.6153 10.4691 11.0768 10.4691Z" fill="#C1C1C1"/>
<path d="M12 1.97531C16 1.97531 18.5 2.64691 19.9231 4.06914C21.3462 5.49136 22.0385 7.98025 22.0769 11.9704V15.9605C22.0769 24.2173 19.9231 26.4691 12 26.4691C4.07693 26.4691 1.92308 24.2173 1.92308 15.9605V12.0494C1.96154 8.01975 2.65384 5.45185 4.07692 4.06914C5.46153 2.64691 8.00001 1.97531 12 1.97531ZM12 0C3.15385 0 0.0769231 3.04197 0 12.0494C0 12.2469 0 15.8025 0 15.9605C0 25.3235 3.00001 28.4444 12 28.4444C21 28.4444 24 25.3235 24 15.9605C24 15.763 24 12.1284 24 11.9309C23.9231 3.04197 20.8077 0 12 0Z" fill="#C1C1C1"/>
</svg>
