<svg width="30" height="31" viewBox="0 0 30 31" fill="none" xmlns="http://www.w3.org/2000/svg">
<path d="M5.12229 9.48906L5.1229 9.48838C6.24912 8.24149 7.57761 7.07371 9.02827 6.02585C10.9179 4.73947 12.7628 3.77685 14.4432 3.21444C14.4617 3.212 14.4777 3.20794 14.4886 3.20495C14.5067 3.20004 14.5253 3.19383 14.5393 3.18915L14.5409 3.18861C14.5493 3.18581 14.5564 3.18348 14.5625 3.18154C14.6218 3.1983 14.6763 3.19493 14.7177 3.19033C14.7379 3.18809 14.7546 3.18577 14.7697 3.18367C14.8005 3.17941 14.8247 3.17605 14.8582 3.17605C14.902 3.17605 14.9395 3.18315 14.9827 3.19274C14.9868 3.19366 14.9912 3.19466 14.9959 3.19572C15.0338 3.20436 15.0874 3.21657 15.1418 3.21657H15.1418H15.1418H15.1418H15.1419H15.1419H15.1419H15.1419H15.1419H15.1419H15.1419H15.1419H15.1419H15.1419H15.1419H15.142H15.142H15.142H15.142H15.142H15.142H15.142H15.142H15.1421H15.1421H15.1421H15.1421H15.1421H15.1421H15.1421H15.1421H15.1421H15.1421H15.1421H15.1421H15.1422H15.1422H15.1422H15.1422H15.1422H15.1422H15.1422H15.1422H15.1422H15.1422H15.1423H15.1423H15.1423H15.1423H15.1423H15.1423H15.1423H15.1423H15.1424H15.1424H15.1424H15.1424H15.1424H15.1424H15.1424H15.1425H15.1425H15.1425H15.1425H15.1425H15.1425H15.1426H15.1426H15.1426H15.1426H15.1426H15.1426H15.1427H15.1427H15.1427H15.1427H15.1427H15.1427H15.1428H15.1428H15.1428H15.1428H15.1428H15.1429H15.1429H15.1429H15.1429H15.1429H15.143H15.143H15.143H15.143H15.1431H15.1431H15.1431H15.1431H15.1432H15.1432H15.1432H15.1432H15.1433H15.1433H15.1433H15.1433H15.1434H15.1434H15.1434H15.1434H15.1435H15.1435H15.1435H15.1436H15.1436H15.1436H15.1436H15.1437H15.1437H15.1437H15.1438H15.1438H15.1438H15.1439H15.1439H15.1439H15.144H15.144H15.144H15.1441H15.1441H15.1441H15.1442H15.1442H15.1442H15.1443H15.1443H15.1443H15.1444H15.1444H15.1445H15.1445H15.1445H15.1446H15.1446H15.1447H15.1447H15.1447H15.1448H15.1448H15.1449H15.1449H15.1449H15.145H15.145H15.1451H15.1451H15.1452H15.1452H15.1453H15.1453H15.1454H15.1454H15.1454H15.1455H15.1455H15.1456H15.1456H15.1457H15.1457H15.1458H15.1458H15.1459H15.1459H15.146H15.146H15.1461H15.1462H15.1462H15.1463H15.1463H15.1464H15.1464H15.1465H15.1465H15.1466H15.1467H15.1467H15.1468H15.1468H15.1469H15.1469H15.147H15.1471H15.1471H15.1472H15.1473H15.1473H15.1474H15.1474H15.1475H15.1476H15.1476H15.1477H15.1478H15.1478H15.1479H15.148H15.148H15.1481H15.1482H15.1482H15.1483H15.1484H15.1484H15.1485H15.1486H15.1487H15.1487H15.1488H15.1489H15.149H15.149H15.1491H15.1492H15.1493H15.1493H15.1494H15.1495H15.1496H15.1496H15.1497H15.1498H15.1499H15.15H15.1501H15.1501H15.1502H15.1503H15.1504H15.1505H15.1506H15.1506H15.1507H15.1508H15.1509H15.151H15.1511H15.1512H15.1513H15.1513H15.1514H15.1515H15.1516H15.1517H15.1518H15.1519H15.152H15.1521H15.1522H15.1522C16.8848 3.94218 18.7276 4.74624 20.6892 6.06712C22.1809 7.11542 23.5893 8.28279 24.8762 9.69003C25.8657 10.8386 26.5421 12.4265 26.7025 14.1366L26.7834 21.382C26.7834 21.3823 26.7834 21.3826 26.7834 21.3829C26.783 24.9465 23.8518 27.8775 20.288 27.8775H9.6715C6.10745 27.8775 3.17605 24.9461 3.17605 21.382V14.4935C3.17605 12.6666 3.85118 10.8793 5.12229 9.48906ZM1 21.4631H0.85C0.85 26.3274 4.80718 30.2846 9.6715 30.2846H20.3285C25.1928 30.2846 29.15 26.3274 29.15 21.4631L29.15 21.4614L29.0689 14.0866L29.0695 14.0866L29.0683 14.0739C28.863 11.9392 28.0419 9.84294 26.6425 8.19663L26.6426 8.19651L26.6376 8.19118C25.4171 6.88927 23.9501 5.50351 22.034 4.1989C19.8329 2.69075 17.7142 1.79452 16.0108 1.10502C15.6296 0.935907 15.245 0.85 14.8582 0.85C14.4727 0.85 14.0894 0.935325 13.7094 1.1033C11.9139 1.7161 9.91865 2.69447 7.68328 4.19826L7.68322 4.19818L7.67878 4.20141C5.88801 5.50378 4.46258 6.80686 3.36201 7.98896L3.36198 7.98892L3.35954 7.99167C1.75529 9.8016 0.85 12.1465 0.85 14.5745V14.5763V14.5781V14.5802V14.5823V14.5846V14.5871V14.5897V14.5924V14.5953V14.5983V14.6014V14.6047V14.6081V14.6117V14.6154V14.6192V14.6232V14.6273V14.6316V14.6359V14.6404V14.6451V14.6498V14.6547V14.6598V14.6649V14.6702V14.6757V14.6812V14.6869V14.6927V14.6986V14.7047V14.7109V14.7172V14.7236V14.7302V14.7369V14.7437V14.7506V14.7576V14.7648V14.7721V14.7795V14.787V14.7947V14.8024V14.8103V14.8183V14.8264V14.8347V14.843V14.8515V14.8601V14.8687V14.8775V14.8865V14.8955V14.9046V14.9139V14.9232V14.9327V14.9423V14.952V14.9617V14.9716V14.9816V14.9918V15.002V15.0123V15.0227V15.0333V15.0439V15.0546V15.0655V15.0764V15.0874V15.0986V15.1098V15.1212V15.1326V15.1441V15.1558V15.1675V15.1793V15.1912V15.2032V15.2154V15.2276V15.2399V15.2522V15.2647V15.2773V15.29V15.3027V15.3156V15.3285V15.3415V15.3546V15.3678V15.3811V15.3945V15.4079V15.4215V15.4351V15.4488V15.4626V15.4765V15.4904V15.5045V15.5186V15.5328V15.5471V15.5615V15.5759V15.5904V15.605V15.6197V15.6344V15.6493V15.6642V15.6791V15.6942V15.7093V15.7245V15.7398V15.7551V15.7705V15.786V15.8016V15.8172V15.8329V15.8486V15.8645V15.8804V15.8963V15.9123V15.9284V15.9446V15.9608V15.9771V15.9935V16.0099V16.0263V16.0429V16.0595V16.0761V16.0928V16.1096V16.1265V16.1434V16.1603V16.1773V16.1944V16.2115V16.2287V16.2459V16.2632V16.2805V16.2979V16.3153V16.3328V16.3504V16.368V16.3856V16.4033V16.421V16.4388V16.4567V16.4746V16.4925V16.5105V16.5285V16.5466V16.5647V16.5828V16.601V16.6193V16.6375V16.6559V16.6742V16.6926V16.7111V16.7296V16.7481V16.7666V16.7852V16.8039V16.8225V16.8412V16.86V16.8788V16.8976V16.9164V16.9353V16.9542V16.9731V16.9921V17.0111V17.0301V17.0492V17.0682V17.0874V17.1065V17.1257V17.1449V17.1641V17.1833V17.2026V17.2219V17.2412V17.2605V17.2799V17.2993V17.3187V17.3381V17.3575V17.377V17.3965V17.416V17.4355V17.455V17.4746V17.4942V17.5137V17.5333V17.5529V17.5726V17.5922V17.6119V17.6315V17.6512V17.6709V17.6906V17.7103V17.73V17.7497V17.7694V17.7892V17.8089V17.8286V17.8484V17.8682V17.8879V17.9077V17.9274V17.9472V17.967V17.9868V18.0065V18.0263V18.0461V18.0659V18.0856V18.1054V18.1252V18.1449V18.1647V18.1845V18.2042V18.2239V18.2437V18.2634V18.2831V18.3029V18.3226V18.3423V18.362V18.3816V18.4013V18.421V18.4406V18.4602V18.4799V18.4995V18.5191V18.5386V18.5582V18.5778V18.5973V18.6168V18.6363V18.6558V18.6752V18.6947V18.7141V18.7335V18.7529V18.7722V18.7915V18.8109V18.8301V18.8494V18.8686V18.8879V18.907V18.9262V18.9453V18.9644V18.9835V19.0026V19.0216V19.0406V19.0595V19.0785V19.0974V19.1162V19.1351V19.1539V19.1726V19.1914V19.2101V19.2287V19.2473V19.2659V19.2845V19.303V19.3215V19.3399V19.3583V19.3766V19.395V19.4132V19.4315V19.4496V19.4678V19.4859V19.504V19.522V19.5399V19.5578V19.5757V19.5935V19.6113V19.6291V19.6467V19.6644V19.682V19.6995V19.717V19.7344V19.7518V19.7691V19.7864V19.8036V19.8207V19.8378V19.8549V19.8719V19.8888V19.9057V19.9225V19.9393V19.956V19.9726V19.9892V20.0057V20.0222V20.0386V20.0549V20.0712V20.0874V20.1036V20.1196V20.1356V20.1516V20.1675V20.1833V20.199V20.2147V20.2303V20.2458V20.2613V20.2767V20.292V20.3073V20.3225V20.3376V20.3526V20.3676V20.3824V20.3972V20.412V20.4266V20.4412V20.4557V20.4701V20.4845V20.4987V20.5129V20.527V20.541V20.555V20.5688V20.5826V20.5963V20.6099V20.6234V20.6369V20.6502V20.6635V20.6767V20.6898V20.7028V20.7157V20.7285V20.7412V20.7539V20.7664V20.7789V20.7912V20.8035V20.8157V20.8278V20.8398V20.8517V20.8635V20.8752V20.8868V20.8983V20.9097V20.921V20.9323V20.9434V20.9544V20.9653V20.9761V20.9868V20.9974V21.0079V21.0183V21.0286V21.0388V21.0489V21.0589V21.0688V21.0785V21.0882V21.0977V21.1072V21.1165V21.1257V21.1349V21.1439V21.1527V21.1615V21.1702V21.1787V21.1872V21.1955V21.2037V21.2118V21.2197V21.2276V21.2353V21.243V21.2505V21.2578V21.2651V21.2722V21.2793V21.2862V21.2929V21.2996V21.3061V21.3125V21.3188V21.325V21.331V21.3369V21.3427V21.3483V21.3538V21.3592V21.3645V21.3696V21.3746V21.3795V21.3842V21.3888V21.3933V21.3977V21.4019V21.4059V21.4099V21.4137V21.4173V21.4209V21.4243V21.4275V21.4306V21.4336V21.4365V21.4392V21.4417V21.4441V21.4464V21.4485V21.4505V21.4524V21.4541V21.4556V21.457V21.4583V21.4594V21.4604V21.4612V21.4619V21.4624V21.4628V21.463L1 21.4631Z" fill="#131330" stroke="#131330" stroke-width="0.3"/>
<path d="M10.8466 23.5986H19.0318C19.682 23.5986 20.1948 23.0857 20.1948 22.4356C20.1948 21.7854 19.682 21.2725 19.0318 21.2725H10.8466C10.1965 21.2725 9.68359 21.7854 9.68359 22.4356C9.68359 23.0857 10.1965 23.5986 10.8466 23.5986Z" fill="#131330" stroke="#131330" stroke-width="0.3"/>
</svg>
