<svg width="28" height="28" viewBox="0 0 28 28" fill="none" xmlns="http://www.w3.org/2000/svg">
<path d="M13.6935 27.8287C3.57061 27.8287 0 24.2581 0 14.1352C0 4.01238 3.57061 0.441772 13.6935 0.441772C14.2088 0.441772 14.6137 0.846687 14.6137 1.36203C14.6137 1.87738 14.2088 2.28229 13.6935 2.28229C4.60131 2.28229 1.84052 5.04307 1.84052 14.1352C1.84052 23.2274 4.60131 25.9882 13.6935 25.9882C22.712 25.9882 25.4728 23.2642 25.5464 14.3929C25.5464 13.8776 25.9513 13.4727 26.4667 13.4727C26.982 13.4727 27.3869 13.8776 27.3869 14.3929C27.3133 24.3317 23.7059 27.8287 13.6935 27.8287Z" fill="#C1C1C1"/>
<path d="M26.8716 1.14112C26.1354 0.368104 25.1783 0 24.1108 0C22.8961 0 21.6077 0.515346 20.577 1.54604L9.38666 12.7364C8.98174 13.2149 8.68726 13.8039 8.68726 14.3929L8.57683 17.4481C8.4664 18.5156 9.34985 19.3991 10.5278 19.3991L13.583 19.2887C14.172 19.1782 14.761 18.9942 15.1659 18.5156L26.4299 7.4357C28.344 5.55837 28.5281 2.79759 26.8716 1.14112ZM13.9143 17.1536L13.8407 17.2273L13.7671 17.3009C13.7671 17.3009 13.6935 17.3745 13.4358 17.4113L10.5646 17.5217C10.5278 17.5217 10.491 17.5218 10.4542 17.4849V17.4481L10.5646 14.3929V14.3561C10.5646 14.3192 10.6014 14.1352 10.7855 13.9143L18.9206 5.77923L22.1967 9.01855L13.9143 17.1536ZM25.1783 6.11053L23.485 7.76699L20.2089 4.52768L21.8654 2.87121C22.4912 2.24543 23.301 1.87733 24.1108 1.87733C24.5157 1.87733 25.0679 1.98776 25.5096 2.42949L25.5464 2.4663L25.5832 2.50311C26.5035 3.38656 26.3194 4.93259 25.1783 6.11053Z" fill="#C1C1C1"/>
</svg>
